<svg version="1.0" xmlns="http://www.w3.org/2000/svg" width="225.000000pt" height="225.000000pt" viewBox="0 0 225.000000 225.000000" preserveAspectRatio="xMidYMid meet">
    <g transform="translate(0.000000,225.000000) scale(0.100000,-0.100000)" fill="#000000" stroke="none">
        <path d="M654 2137 c-40 -34 -72 -66 -72 -72 0 -8 195 -233 750 -864 l66 -76
        -22 -25 c-13 -14 -186 -212 -386 -440 -200 -228 -376 -429 -391 -445 l-29 -31
        76 -64 c42 -36 80 -65 84 -65 4 0 219 241 478 535 l470 535 -57 65 c-32 36
        -243 276 -470 535 -227 259 -416 471 -419 472 -4 1 -39 -26 -78 -60z"/>
    </g>
</svg>
