<svg version="1.0" xmlns="http://www.w3.org/2000/svg" width="225.000000pt" height="225.000000pt" viewBox="0 0 225.000000 225.000000" preserveAspectRatio="xMidYMid meet">
    <g transform="translate(0.000000,225.000000) scale(0.100000,-0.100000)" fill="#000000" stroke="none">
        <path d="M290 1900 l0 -70 900 0 900 0 0 -635 0 -635 70 0 70 0 0 705 0 705 -970 0 -970 0 0 -70z"/>
        <path d="M25 1698 c-3 -7 -4 -330 -3 -718 l3 -705 973 -3 972 -2 -2 717 -3 718 -968 3 c-769 2 -969 0 -972 -10z m1674 -135 c0 -5 -97 -87 -216 -183 -118 -96 -273 -223 -344 -282 -71 -59 -133 -110 -138 -113 -9 -5 -693 558 -699 576 -2 5 294 9 697 9 386 0 701 -3 700 -7z m129 -794 l-3 -242 -252 271 -253 271 253 210 252 210 3 -240 c1 -131 1 -348 0 -480z m-1413 511 c131 -107 242 -198 248 -202 9 -6 -209 -248 -425 -473 l-77 -80 -1 478 c0 281 4 477 9 475 5 -1 116 -91 246 -198z m470 -395 c55 -47 105 -85 110 -84 6 0 55 38 110 84 55 47 103 84 107 83 4 -2 123 -127 264 -278 l257 -275 -733 -3 c-403 -1 -735 0 -738 3 -3 3 28 40 68 83 91 95 170 179 324 345 65 70 121 127 125 127 3 0 51 -38 106 -85z"/>
    </g>
</svg>
