<svg version="1.0" xmlns="http://www.w3.org/2000/svg" width="512.000000pt" height="512.000000pt" viewBox="0 0 512.000000 512.000000" preserveAspectRatio="xMidYMid meet">
    <g transform="translate(0.000000,512.000000) scale(0.100000,-0.100000)" fill="#000000" stroke="none">
        <path d="M2315 5105 c-595 -110 -1074 -557 -1210 -1129 -37 -156 -45 -268 -45 -640 l0 -344 -158 -4 c-152 -3 -159 -4 -225 -35 -128 -61 -222 -180 -247 -312 -13 -70 -13 -1609 0 -1711 16 -120 48 -227 99 -335 135 -283 377 -481 691 -567 l85 -23 1255 0 c1193 0 1258 1 1325 19 172 46 330 128 457 237 123 107 239 281 294 441 60 174 57 131 61 1041 3 557 0 857 -7 895 -24 135 -118 253 -247 315 l-68 32 -1332 3 -1333 2 0 319 c0 176 5 355 11 397 75 537 566 880 1056 738 360 -104 607 -410 629 -779 7 -111 25 -165 69 -204 53 -46 91 -53 275 -49 196 4 226 14 275 93 29 47 30 52 29 169 -4 335 -141 688 -366 942 -218 245 -494 407 -818 479 -106 24 -446 30 -555 10z m327 -2986 c108 -23 226 -108 282 -204 84 -142 69 -334 -35 -465 -22 -28 -57 -62 -79 -76 l-40 -27 0 -146 c0 -170 -7 -202 -57 -261 -89 -103 -213 -105 -305 -2 -50 55 -58 92 -58 263 l0 146 -39 26 c-21 14 -55 45 -75 70 -138 168 -125 407 30 560 103 101 241 144 376 116z"/>
    </g>
</svg>
