<svg version="1.0" xmlns="http://www.w3.org/2000/svg" width="898.000000pt" height="980.000000pt" viewBox="0 0 898.000000 980.000000" preserveAspectRatio="xMidYMid meet">
    <g transform="translate(0.000000,980.000000) scale(0.100000,-0.100000)" fill="#000000" stroke="none">
        <path d="M4305 9794 c-377 -39 -651 -117 -950 -273 -715 -371 -1183 -1042
        -1296 -1861 -20 -141 -17 -497 5 -640 61 -401 191 -739 404 -1050 103 -150
        166 -226 301 -360 346 -345 786 -576 1266 -665 1080 -199 2152 332 2643 1310
        231 458 310 997 222 1511 -133 775 -624 1436 -1323 1779 -236 117 -472 191
        -727 230 -101 15 -459 28 -545 19z"/>
        <path d="M6756 5284 c-98 -19 -194 -68 -342 -174 -233 -167 -569 -355 -815
        -456 -693 -284 -1327 -308 -2029 -74 -350 116 -640 269 -964 508 -201 148
        -320 192 -531 199 -159 6 -261 -8 -435 -58 -511 -147 -891 -494 -1166 -1064
        -198 -413 -334 -875 -409 -1398 -47 -333 -59 -529 -59 -972 0 -375 2 -420 22
        -525 56 -307 184 -558 395 -777 257 -266 539 -406 947 -470 109 -17 278 -18
        3125 -18 2845 0 3016 1 3123 18 547 87 940 353 1167 789 181 348 227 746 170
        1463 -66 828 -197 1378 -449 1885 -223 448 -489 746 -833 932 -291 158 -680
        240 -917 192z"/>
    </g>
</svg>
